# xmcd
#
# Track frame offsets:
#        150
#        26192
#        55500
#        81440
#
# Disc length: 1371 seconds
#
# Revision: 0
# Processed by: cddbd v1.5.1PL0 Copyright (c) Steve Scherf et al.
# Submitted via: ExactAudioCopy v0.95a5
#
DISCID=2b055904
DTITLE=Kiss Destination - kuchibue ni saku hana
DYEAR=2000
DGENRE=R&B
TTITLE0=kuchibue ni saku hana ( TK Originak Mix )
TTITLE1=kuchibue ni saku hana ( Bahama '99 Mix )
TTITLE2=kuchibue ni saku hana ( TV Miv )
TTITLE3=kuchibue ni saku hana ( Acappella )
EXTD=
EXTT0=
EXTT1=
EXTT2=
EXTT3=
PLAYORDER=
